<?xml version="1.0" encoding="utf-8"?>
<!-- Generator: Adobe Illustrator 16.0.0, SVG Export Plug-In . SVG Version: 6.00 Build 0)  -->
<!DOCTYPE svg PUBLIC "-//W3C//DTD SVG 1.0//EN" "http://www.w3.org/TR/2001/REC-SVG-20010904/DTD/svg10.dtd">
<svg version="1.0" id="BACKGROUND" xmlns="http://www.w3.org/2000/svg" xmlns:xlink="http://www.w3.org/1999/xlink" x="0px" y="0px"
	 width="500px" height="500px" viewBox="0 0 500 500" enable-background="new 0 0 500 500" xml:space="preserve">
<g opacity="0.55">
	<g>
		<g>
			<g>
				<g opacity="0.21">
					<path fill="#FEAD6C" d="M429.997,409.127c15.151-19.408,0.936-44.927-5.78-74.398c-5.008-21.977,13.879-39.41,22.1-59.495
						c7.316-17.874,10.805-39.524,10.668-59.235c-0.187-26.911-8.085-54.089-23.64-73.8c-24.236-30.712-63.484-39.411-98.809-33.494
						c-14.796,2.478-29.624,7.197-44.459,5.148c-21.639-2.988-39.734-19.71-58.771-32.135
						c-25.913-16.913-56.289-26.491-85.492-20.302c-33.111,7.018-61.872,36.31-67.789,76.106
						c-2.681,18.033,9.808,50.299,4.005,67.295c-5.885,17.237-44.23,69.443-45.739,109.963c-1.682,45.18,37.81,68.117,69.694,94.334
						C176.69,467.252,400.953,446.33,429.997,409.127z"/>
				</g>
				<g opacity="0.27">
					<path fill="#FEAD6C" d="M358.593,404.37c23.413-0.341,42.856-17.824,45.317-40.752c1.839-17.128,2.58-35.244-0.638-45.31
						c-5.451-17.049,8.3-32.077,13.438-48.499c4.572-14.616,5.861-31.965,4.416-47.542c-1.973-21.268-10.062-42.24-23.697-56.803
						c-21.247-22.692-52.87-26.989-80.399-19.987c-11.531,2.933-22.936,7.639-34.805,6.995
						c-17.312-0.94-32.754-12.973-48.649-21.546c-21.637-11.669-46.304-17.246-68.975-10.431
						c-25.705,7.727-46.458,32.781-48.437,64.64c-0.896,14.436,11.167,39.129,7.733,52.95c-3.484,14.018-29.93,57.809-28.706,89.962
						c0.584,15.336,20.116,36.55,42.609,56.019c38.192,33.059,90.878,44.662,139.71,30.756
						C305.006,406.991,335.318,404.71,358.593,404.37z"/>
				</g>
				<g opacity="0.21">
					<path fill="#FEAD6C" d="M331.822,352.015c0.32-0.19,0.633-0.396,0.936-0.616c6.434-4.696,7.17-15.765,8.106-22.976
						c1.426-10.974-0.102-22.33-0.259-33.341c-0.18-12.547,4.055-22.87,6.729-34.672c2.38-10.503,2.417-22.539,0.698-33.074
						c-2.347-14.383-8.799-27.926-18.68-36.493c-15.396-13.349-36.899-12.997-55.105-5.321c-7.626,3.215-15.081,7.634-23.105,8.431
						c-11.705,1.162-22.681-5.481-33.797-9.704c-15.131-5.748-32.011-6.998-46.954,0.042c-16.942,7.982-29.72,27.335-29.528,49.396
						c0.087,9.996,2.733,19.995,1.081,29.834c-1.676,9.979-7.056,18.119-10.172,27.438c-2.422,7.243,3.934,18.329,7.231,24.569
						c4.543,8.597,10.333,16.553,17.111,23.579c13.49,13.984,31.017,24.338,50.242,28.393c21.372,4.507,43.579,1.525,65.1-2.204
						c17.747-3.076,35.404-6.652,52.943-10.723C326.962,353.979,329.588,353.345,331.822,352.015z"/>
				</g>
			</g>
		</g>
		<g opacity="0.21">
			
				<ellipse transform="matrix(0.9999 0.0155 -0.0155 0.9999 1.2175 -4.8481)" fill="#FEAD6C" cx="313.683" cy="76.196" rx="17.564" ry="17.294"/>
		</g>
		<g opacity="0.21">
			<path fill="#FEAD6C" d="M452.097,133.407c-2.309,2.205-5.997,2.147-8.236-0.127c-2.24-2.275-2.184-5.906,0.126-8.11
				c2.309-2.205,5.996-2.147,8.236,0.127S454.406,131.203,452.097,133.407z"/>
		</g>
		<g opacity="0.21">
			<path fill="#FEAD6C" d="M68.375,75.068c-2.309,2.204-5.997,2.147-8.237-0.127c-2.24-2.275-2.184-5.906,0.126-8.11
				c2.309-2.204,5.997-2.147,8.236,0.128C70.741,69.233,70.684,72.864,68.375,75.068z"/>
		</g>
		<g opacity="0.21">
			<path fill="#FEAD6C" d="M52.535,200.442c-4.877,4.655-12.666,4.535-17.397-0.27c-4.73-4.804-4.612-12.474,0.266-17.129
				c4.877-4.655,12.667-4.535,17.397,0.27S57.413,195.786,52.535,200.442z"/>
		</g>
		<g opacity="0.21">
			<path fill="#FEAD6C" d="M462.951,371.712c-4.878,4.655-12.667,4.535-17.397-0.27s-4.611-12.474,0.266-17.129
				c4.877-4.656,12.666-4.535,17.396,0.27C467.947,359.387,467.828,367.057,462.951,371.712z"/>
		</g>
		<g opacity="0.21">
			<path fill="#FEAD6C" d="M62.067,426.367c-4.877,4.656-12.666,4.535-17.397-0.27c-4.73-4.805-4.612-12.474,0.266-17.129
				s12.666-4.535,17.397,0.27C67.063,414.043,66.945,421.712,62.067,426.367z"/>
		</g>
		<g opacity="0.21">
			<path fill="#FEAD6C" d="M48.387,165.167c-1.512,1.443-3.927,1.406-5.394-0.083s-1.43-3.868,0.083-5.312
				c1.512-1.443,3.927-1.406,5.394,0.084S49.9,163.723,48.387,165.167z"/>
		</g>
		<g opacity="0.21">
			<path fill="#FEAD6C" d="M96.292,425.757c-1.512,1.443-3.927,1.406-5.394-0.083c-1.467-1.49-1.43-3.868,0.082-5.312
				c1.513-1.443,3.928-1.406,5.395,0.084C97.841,421.936,97.804,424.313,96.292,425.757z"/>
		</g>
		<g opacity="0.21">
			<path fill="#FEAD6C" d="M417.766,443.936c-1.512,1.443-3.927,1.405-5.394-0.084c-1.467-1.49-1.431-3.867,0.082-5.312
				c1.513-1.443,3.928-1.406,5.395,0.084C419.315,440.113,419.278,442.491,417.766,443.936z"/>
		</g>
		<g opacity="0.1">
			<path fill="#FEAD6C" d="M287.02,332.732c0.23-0.064,0.458-0.141,0.684-0.228c4.774-1.849,7.067-8.6,8.846-12.923
				c2.705-6.577,3.641-13.884,5.369-20.747c1.971-7.822,6.313-13.53,9.931-20.416c3.221-6.127,5.24-13.596,5.921-20.423
				c0.929-9.321-0.831-18.802-5.546-25.761c-7.347-10.844-20.759-14.192-33.338-12.446c-5.27,0.731-10.632,2.239-15.748,1.402
				c-7.461-1.221-13.175-7.167-19.378-11.633c-8.442-6.079-18.718-9.656-29.165-7.763c-11.846,2.147-22.991,12.045-26.532,25.777
				c-1.604,6.223-1.62,12.871-4.278,18.707c-2.696,5.919-7.387,10.082-10.868,15.352c-2.706,4.096-0.598,12.034,0.415,16.457
				c1.395,6.092,3.671,11.994,6.714,17.481c6.057,10.922,15.224,20.26,26.491,25.967c12.524,6.344,26.81,8.177,40.793,9.431
				c11.531,1.034,23.09,1.742,34.657,2.124C283.675,333.146,285.411,333.188,287.02,332.732z"/>
		</g>
	</g>
</g>
<g>
	<g>
		<g>
			<g>
				<path fill="#3454A7" d="M413.963,399.979l-16.013-8.195l-7.631,14.91l7.267,3.72l-2.7,5.276
					c-2.014,3.935-0.456,8.758,3.479,10.771l3.909,2.001l6.347-12.401l0,0l6.46-12.62
					C415.729,402.176,415.228,400.626,413.963,399.979z"/>
				
					<rect x="393.362" y="413.03" transform="matrix(-0.4556 0.8902 -0.8902 -0.4556 963.9026 239.5446)" fill="#FFFFFF" width="30.68" height="2.978"/>
				
					<line fill="none" stroke="#FFFFFF" stroke-width="0.75" stroke-linecap="round" stroke-linejoin="round" stroke-miterlimit="10" x1="391.82" y1="408.725" x2="393.379" y2="405.299"/>
				
					<line fill="none" stroke="#FFFFFF" stroke-width="0.75" stroke-linecap="round" stroke-linejoin="round" stroke-miterlimit="10" x1="393.855" y1="409.938" x2="395.414" y2="406.512"/>
				
					<line fill="none" stroke="#FFFFFF" stroke-width="0.75" stroke-linecap="round" stroke-linejoin="round" stroke-miterlimit="10" x1="395.961" y1="411.192" x2="397.52" y2="407.767"/>
			</g>
			<circle fill="#FFFFFF" cx="404.94" cy="402.871" r="3.561"/>
		</g>
		<g>
			<path fill="#3454A7" d="M460.671,297.319L460.671,297.319l-7.844-8.58c-0.958-1.048-2.585-1.121-3.634-0.163l-13.276,12.137
				l11.301,12.363l6.025-5.509l3.436,3.759c2.982,3.263,8.045,3.49,11.309,0.507l3.241-2.963L460.671,297.319z"/>
			
				<rect x="445.772" y="296.792" transform="matrix(0.6747 0.7381 -0.7381 0.6747 370.0306 -243.0056)" fill="#FFFFFF" width="29.846" height="2.978"/>
			
				<line fill="none" stroke="#FFFFFF" stroke-width="0.75" stroke-linecap="round" stroke-linejoin="round" stroke-miterlimit="10" x1="449.645" y1="312.379" x2="446.98" y2="309.722"/>
			
				<line fill="none" stroke="#FFFFFF" stroke-width="0.75" stroke-linecap="round" stroke-linejoin="round" stroke-miterlimit="10" x1="451.492" y1="310.897" x2="448.828" y2="308.239"/>
			
				<line fill="none" stroke="#FFFFFF" stroke-width="0.75" stroke-linecap="round" stroke-linejoin="round" stroke-miterlimit="10" x1="453.405" y1="309.363" x2="450.74" y2="306.705"/>
			<circle fill="#FFFFFF" cx="448.299" cy="298.811" r="3.561"/>
		</g>
		<g>
			<path fill="#FF8F39" d="M370.008,343.805c5.111,13.271,21.95,17.277,32.491,7.733l46.329-37.007l-15.738-16.833l-33.717,23.725
				l-9.176-48.417c-2.141-11.585-3.186-23.044-9.461-33.014l-10.485-14l-43.913,4.397l-7.881-3.042l-4.514,53.147l-4.952,49.141
				c-1.222,12.131,3.782,24.056,13.296,31.681l66.364,49.567l10.722-20.574l-55.454-50.296l10.546-36.561L370.008,343.805z"/>
			<polygon fill="#F47E2F" points="338.58,252.294 351.27,314.531 354.465,303.452 			"/>
		</g>
		<polygon fill="#F47E2F" points="399.373,321.423 399.994,325.814 410.64,313.495 		"/>
	</g>
	<g>
		<path fill="#FFB380" d="M455.484,239.504l-0.003,0c0.254-0.227,0.436-0.537,0.482-0.899c0.104-0.798-0.466-1.535-1.264-1.638
			l-0.65-0.084c-0.03-0.022-0.052-0.043-0.083-0.065c0,0-0.019-0.037-0.053-0.101c0.408-0.157,0.738-0.496,0.823-0.956
			c0.13-0.703-0.339-1.384-1.042-1.514l-2.153-0.398c-0.112-0.083-0.221-0.171-0.339-0.243c-1.406-0.855-10.772-3.432-16.05-3.911
			c0,0-23.645-29.453-24.68-30.092l-21.353-23.072l-12.484,20.694l17.686,17.25c0.677,1.341,37.974,30.594,37.974,30.594v0.009
			l0.263,0.193l0.002,0.001v0l1.108,0.814c0.13,0.095,0.277,0.157,0.42,0.229c1.106,1.051,3.613,3.211,7.062,4.836
			c3.394,1.601,1.912-2.476,0.808-4.899l10.077-1.218l2.112,0.217c0.801,0.082,1.522-0.506,1.604-1.306
			c0.067-0.658-0.32-1.256-0.903-1.497c0.054-0.015,0.106-0.032,0.162-0.05l0.175,0.018c0.801,0.082,1.522-0.505,1.604-1.306
			C456.873,240.308,456.285,239.586,455.484,239.504z"/>
		<g>
			<path fill="#FFB380" d="M279.382,136.305l-11.683-34.368c0.271-0.689,0.722-1.537,1.504-2.421
				c2.294-2.59,1.561-5.741,1.561-5.741c1.089-1.766,2.449-3.381,3.582-5.124c0.118-0.182,0.238-0.379,0.217-0.592
				c-0.024-0.237-0.222-0.437-0.432-0.591c-1.222-0.896-2.803-0.672-3.89,0.158c-0.638,0.486-1.15,1.079-1.607,1.703
				c-0.217,0.296-1.01,1.16-1.171,1.643l1.819-12.351c0.161-1.097-0.562-2.12-1.606-2.274c-0.522-0.077-1.03,0.078-1.428,0.388
				c-0.252,0.197-0.451,0.462-0.591,0.765c-0.011-0.084-0.017-0.134-0.017-0.134c-8.448-3.359-10.594,15.85-10.594,15.85
				l-0.929,8.87l3.417,40.073c0.009,0.069,0.026,0.134,0.036,0.203c0.062,4.104,2.31,8.046,6.201,10.085l18.425,10.988l9.705-20.506
				L279.382,136.305z M267.437,91.152c0,0.001-0.001,0.002-0.001,0.003l0,0L267.437,91.152z"/>
			<g>
				<g>
					<g>
						<path fill="none" stroke="#FF8B2E" stroke-linecap="round" stroke-miterlimit="10" d="M267.328,90.546
							c0,0-3.72-0.799-5.074,2.708"/>
					</g>
					<g>
						<path fill="#FF8B2E" d="M265.911,77.491c-0.583,1.405-1.08,2.869-1.426,4.345c-0.175,0.738-0.31,1.484-0.362,2.223
							c-0.054,0.735-0.045,1.479,0.146,2.126l0.002,0.007c0.078,0.265-0.072,0.543-0.338,0.622
							c-0.265,0.078-0.543-0.073-0.621-0.338c-0.002-0.007-0.005-0.016-0.006-0.023c-0.21-0.856-0.169-1.684-0.078-2.483
							c0.093-0.801,0.27-1.575,0.484-2.333c0.427-1.519,0.992-2.972,1.656-4.396c0.07-0.149,0.247-0.213,0.396-0.144
							c0.145,0.068,0.21,0.237,0.149,0.384L265.911,77.491z"/>
					</g>
					<g>
						<path fill="#FF8B2E" d="M263.825,77.222c-0.493,0.461-0.906,1.154-1.207,1.831c-0.309,0.69-0.519,1.428-0.67,2.175
							c-0.163,0.746-0.229,1.514-0.282,2.279c-0.034,0.769-0.021,1.539,0.018,2.309v0.01c0.015,0.276-0.198,0.511-0.475,0.524
							c-0.275,0.014-0.511-0.199-0.524-0.475c0-0.006,0-0.014,0-0.02c-0.009-0.805,0.011-1.609,0.078-2.414
							c0.088-0.803,0.19-1.606,0.395-2.393c0.193-0.788,0.448-1.565,0.813-2.301c0.376-0.736,0.791-1.427,1.477-2.02
							c0.129-0.111,0.324-0.097,0.436,0.032c0.108,0.125,0.099,0.314-0.021,0.427L263.825,77.222z"/>
					</g>
					<g>
						<path fill="#FF8B2E" d="M261.319,78.161c-0.622,1.084-1.121,2.274-1.472,3.476c-0.35,1.206-0.528,2.455-0.439,3.664
							l0.001,0.009c0.021,0.276-0.187,0.516-0.462,0.536c-0.276,0.021-0.516-0.187-0.536-0.462
							c-0.001-0.008-0.001-0.019-0.001-0.027c-0.026-1.375,0.247-2.708,0.683-3.958c0.442-1.254,1.013-2.434,1.737-3.553
							c0.087-0.135,0.268-0.173,0.402-0.086c0.131,0.084,0.171,0.255,0.096,0.389L261.319,78.161z"/>
					</g>
				</g>
			</g>
		</g>
		<g>
			<g>
				<path fill="#3454A7" d="M370.66,155.801c-3.973-3.946-9.359-6.139-14.958-6.087l-2.764,0.025
					c-0.616-0.058-1.238-0.08-1.869-0.023l-0.5,0.045l-1.689,0.015l0.025,0.134l-1.363,0.123l-20.288,1.826
					c-2.619,0.236-4.908,0.698-6.872,1.439v-0.007l-28.479-10.362l-9.705,20.506l-1.058,2.234l32.395,20.941
					c1.555,17.904,3.927,45.745,4.078,50.688c0.054,1.736,56.029-6.109,55.952-6.882c-1.271-12.685-4.331-30.329-5.796-39.068
					l7.929,7.435l0.939-1.558l12.484-20.694l1.377-2.283L370.66,155.801z"/>
			</g>
			<polygon fill="#294C9B" points="301.265,178.679 316.588,183.265 315.579,210.54 313.534,186.61 			"/>
			<polygon fill="#294C9B" points="367.769,191.347 362.823,181.412 362.823,191.603 371.078,211.594 			"/>
		</g>
	</g>
	<g>
		<path fill="#1C3472" d="M371.411,126.337c-2.235-1.095-5.115-2.24-8.794-3.597l-8.497-12.039c1.597-0.597,3.146-1.598,4.463-3
			c3.813-4.057,4.245-9.843,0.966-12.925c-3.279-3.082-9.027-2.292-12.841,1.765c-0.773,0.824-1.4,1.72-1.894,2.649
			c-3.257-2.521-7.916-4.251-14.607-4.276c-16.597-0.063-18.565,16.809-18.565,16.809s2.403,0.708,5.348,1.021
			c1.002,0.107,2.066,0.168,3.121,0.14l-6.042,11.861c-5.13,2.782-8.576,4.846-10.767,6.792c-2.071,1.838-1.263,5.164,1.351,6.08
			c1.777,0.624,3.767,1.982,5.357,4.808c3.523,6.255,16.857,8.037,28.509,3.588l-0.113,0.447
			c12.967,4.166,27.946,0.457,30.757-6.802c0.819-2.117,1.935-3.551,3.104-4.519C375.232,132.68,374.873,128.031,371.411,126.337z"
			/>
		<path fill="none" stroke="#FB8E77" stroke-linecap="round" stroke-miterlimit="10" d="M323.617,118.505"/>
		<g>
			<g>
				<g>
					<path fill="#FFB380" d="M349.102,121.613l-0.047,0.421l-0.005,0.002c-2.946,1.733-6.835,0.53-8.102-2.645
						c-0.105-0.265-0.182-0.545-0.25-0.83c-14.807-2.404-13.368-9.487-13.368-9.487c-1.347,3.796-6.344,4.098-10.341,3.671
						l-2.378,13.892c-1.452,8.484,4.248,16.539,12.732,17.99c0.355,0.061,0.708,0.091,1.061,0.127l-0.279,9.926
						c-0.124,4.402,3.345,8.072,7.747,8.196s8.072-3.344,8.196-7.747l0.582-20.668c0.266-0.752,0.481-1.53,0.633-2.338l0.001,0
						l1.104,0.188c3.016,0.516,5.879-1.51,6.395-4.526C353.248,125.064,351.639,122.472,349.102,121.613z"/>
				</g>
				<path opacity="0.46" fill="#FF8B2E" d="M326.618,143.198c-7.963-1.363-13.313-8.923-11.951-16.886l2.396-13.994c0,0,0,0,0,0
					l-2.451,14.32c-1.452,8.484,4.248,16.539,12.732,17.99c0.354,0.061,0.707,0.091,1.06,0.127l-0.302,9.362l12.249-13.228
					l-0.015,0.004c2.493-2.219,4.291-5.247,4.948-8.77l-1.902-0.326C341.769,139.452,334.394,144.529,326.618,143.198z"/>
			</g>
			<polyline fill="none" stroke="#FF8B2E" stroke-width="0.5" stroke-linecap="round" stroke-miterlimit="10" points="
				348.984,124.971 347.118,127.639 348.801,128.783 			"/>
		</g>
		<g>
			<circle fill="#1C3472" cx="330.431" cy="123.53" r="0.906"/>
			<circle fill="#1C3472" cx="320.274" cy="121.718" r="0.906"/>
			<path fill="none" stroke="#FF8B2E" stroke-width="0.5" stroke-linecap="round" stroke-miterlimit="10" d="M325.589,128.282
				c-1.017-0.171-1.86-0.163-2.644-0.945c-0.729-0.728-1.162-1.978-0.647-2.902c0.227-0.409,0.699-0.641,1.186-0.613l0.991,0.056
				l1.761-5.16"/>
			<path fill="none" stroke="#FF8B2E" stroke-width="0.5" stroke-linecap="round" stroke-miterlimit="10" d="M323.034,135.249
				c0,0-0.872-1.486-2.517-1.146"/>
			<g>
				<g>
					<g>
						<path fill="#1C3472" d="M334.554,121.008c-0.427,0.003-0.874-0.239-1.321-0.448c-0.445-0.22-0.897-0.43-1.297-0.598
							c-0.4-0.169-0.867-0.348-1.336-0.513c-0.461-0.175-0.949-0.329-1.239-0.634c-0.282-0.291-0.246-0.766,0.377-1.105
							c0.593-0.337,1.82-0.457,3.146,0.1c1.322,0.562,2.076,1.519,2.233,2.172C335.291,120.658,334.963,121.01,334.554,121.008z"/>
					</g>
					<g>
						<path fill="#1C3472" d="M318.617,117.648c0.324,0.112,0.729,0.042,1.123-0.003c0.396-0.054,0.795-0.098,1.144-0.124
							s0.75-0.043,1.15-0.049c0.396-0.015,0.809-0.007,1.108-0.166c0.289-0.149,0.384-0.521-0.004-0.94
							c-0.366-0.409-1.272-0.815-2.427-0.73c-1.153,0.09-1.974,0.627-2.261,1.085C318.145,117.192,318.305,117.545,318.617,117.648z
							"/>
					</g>
				</g>
			</g>
			<g>
				<path fill="#FFFFFF" d="M331.842,127.292c0,0-2.187,1.727-4.607,2.613c-2.42,0.886,0.433,4.626,4.168,3.482
					C335.137,132.242,333.789,126.43,331.842,127.292z"/>
			</g>
			<path fill="none" stroke="#FF8B2E" stroke-width="0.25" stroke-linecap="round" stroke-miterlimit="10" d="M319.136,122.458
				c0,0,1.087-0.187,1.797,0.368"/>
			<path fill="none" stroke="#FF8B2E" stroke-width="0.25" stroke-linecap="round" stroke-miterlimit="10" d="M329.349,124.272
				c0,0,1.086-0.186,1.796,0.368"/>
		</g>
	</g>
</g>
<g>
	<g>
		<g>
			<g>
				<g>
					<path fill="#FF7F14" d="M182.497,432.013l-9.686-4.729l3.678-7.531l-18.166-8.87l-8.133,16.656
						c-0.623,1.276-0.094,2.816,1.183,3.439l15.854,7.742l0-0.001l19.175,9.363l0.951-1.946
						C189.912,440.896,187.737,434.572,182.497,432.013z"/>
					
						<rect x="147.238" y="436.856" transform="matrix(0.8986 0.4388 -0.4388 0.8986 209.3925 -29.2672)" fill="#EAEAEA" width="41.555" height="3.057"/>
					<g>
						<g>
							
								<path fill="none" stroke="#EAEAEA" stroke-width="0.75" stroke-linecap="round" stroke-linejoin="round" stroke-miterlimit="10" d="
								M173.514,428.128c-0.399-0.076-0.516-0.588-0.193-0.836c1.342-1.036,4.045-2.787,4.639-0.632
								C178.557,428.832,175.219,428.453,173.514,428.128z"/>
							
								<path fill="none" stroke="#EAEAEA" stroke-width="0.75" stroke-linecap="round" stroke-linejoin="round" stroke-miterlimit="10" d="
								M168.143,424.602c1.309-2.304,3.77,0.788,4.917,2.477c0.18,0.265,0.092,0.586-0.127,0.751
								c-0.109,0.082-0.25,0.126-0.407,0.105C170.548,427.68,166.843,426.889,168.143,424.602"/>
						</g>
					</g>
					
						<path fill="none" stroke="#EAEAEA" stroke-width="0.75" stroke-linecap="round" stroke-linejoin="round" stroke-miterlimit="10" d="
						M173.05,428.074c0,0-1.156,3.187-4.006,3.302"/>
				</g>
				<circle fill="#EAEAEA" cx="159.875" cy="423.129" r="3.716"/>
			</g>
			<g>
				<g>
					<path fill="#FF7F14" d="M57.521,309.685l-18.208-3.472c-1.396-0.266-2.742,0.649-3.008,2.045L33,325.59l0,0l-3.997,20.961
						l2.128,0.406c5.729,1.092,11.259-2.667,12.352-8.396l2.019-10.587l8.232,1.569L57.521,309.685z"/>
					
						<rect x="12.753" y="324.733" transform="matrix(-0.1873 0.9823 -0.9823 -0.1873 360.3 354.4262)" fill="#EAEAEA" width="41.555" height="3.058"/>
					<g>
						<g>
							
								<path fill="none" stroke="#EAEAEA" stroke-width="0.75" stroke-linecap="round" stroke-linejoin="round" stroke-miterlimit="10" d="
								M44.872,328.873c-0.032-0.406,0.432-0.652,0.756-0.407c1.352,1.023,3.752,3.171,1.828,4.311
								C45.517,333.924,45.006,330.604,44.872,328.873z"/>
							
								<path fill="none" stroke="#EAEAEA" stroke-width="0.75" stroke-linecap="round" stroke-linejoin="round" stroke-miterlimit="10" d="
								M46.863,322.764c2.567,0.658,0.23,3.845-1.097,5.396c-0.208,0.243-0.541,0.243-0.758,0.075
								c-0.108-0.084-0.187-0.209-0.209-0.366C44.525,325.894,44.315,322.111,46.863,322.764"/>
						</g>
					</g>
					
						<path fill="none" stroke="#EAEAEA" stroke-width="0.75" stroke-linecap="round" stroke-linejoin="round" stroke-miterlimit="10" d="
						M44.801,328.411c0,0-3.377-0.278-4.238-2.998"/>
				</g>
				<circle fill="#EAEAEA" cx="46.837" cy="315.494" r="4.155"/>
			</g>
			<g>
				<path fill="#3454A7" d="M202.184,300.921l-21.323-51.409l-20.685-5.16l-28.838-3.021l-21.71,7.769l2.437,71.49l-55.128-14.406
					c-0.927,0.267-3.913,26.227-3.913,26.227l67.988,18.79c10.328,2.926,21.457-1.817,26.079-11.506
					c2.331-4.887,3.783-10.241,4.217-14.965l2.717-24.624l14.433,16.474c0,0-12.903,95.141-12.659,95.163
					c0,0,22.575,12.818,22.725,12.227l25.478-98.31C206.072,317.432,205.434,308.757,202.184,300.921z"/>
				<polygon fill="#1C3472" points="157.846,265.475 159.905,306.815 153.948,300.808 				"/>
			</g>
		</g>
		<g>
			<g>
				<g>
					<path fill="#FEAD6C" d="M82.926,237.749c-0.161-1.212-0.535-2.344-1.253-3.284c-0.264-0.346-0.576-0.662-0.765-1.053
						c-0.401-0.827,0.23-2.322,0.406-3.199c0.149-0.743,0.299-1.486,0.449-2.229c-0.086,0.027-0.162,0.074-0.251,0.093
						l-14.092,3.142c-0.035,0.008-0.068,0.003-0.103,0.01c-1.023,1.957-2.136,5.278-1.531,9.943l-1.741,10.161
						c-0.105,0.613,0.311,1.202,0.925,1.307l0.582,0.1c0.614,0.105,1.202-0.311,1.307-0.924l1.738-10.144l-1.947,11.36
						c-0.118,0.691,0.35,1.354,1.041,1.472l0.655,0.112c0.69,0.118,1.353-0.351,1.472-1.041l-0.227,1.324
						c-0.119,0.69,0.35,1.353,1.041,1.471l0.655,0.112c0.691,0.119,1.353-0.35,1.472-1.041l2.167-12.644l-2.034,11.868
						c-0.118,0.69,0.35,1.353,1.042,1.471l0.655,0.112c0.691,0.119,1.353-0.35,1.472-1.041l2.236-12.965
						c0.363,0.301,0.378,2.106,0.465,2.592c0.209,1.159,0.684,2.64,1.746,2.739c1.251,0.116,1.667-1.25,1.819-2.229
						C82.671,243.121,83.258,240.262,82.926,237.749z"/>
					<path fill="#FF8F39" d="M250.232,101.247l-15.924-3.952l-2.045-0.507l-18.584,37.218c0,0-32.612,5.64-32.613,5.64
						c-3.594-2.384-7.817-3.929-12.416-4.331c-4.954-0.432-9.907-0.864-14.86-1.297c-7.812-0.682-17.502-3.2-25.059-0.686
						c-4.837,1.609-9.63,4.441-14.234,6.65c-3.493,1.675-6.984,3.354-10.477,5.031c-7.679,3.688-15.359,7.377-23.039,11.065
						c-1.259,0.604-2.518,1.209-3.777,1.813c-2.75,1.321-4.655,3.931-5.075,6.952l-8.717,62.681
						c-0.314,2.256,1.687,4.127,3.904,3.704c0.035-0.007,0.068-0.002,0.103-0.01l14.092-3.142c0.089-0.02,0.165-0.066,0.25-0.093
						c1.003-0.318,1.795-1.105,2.068-2.134l11.572-43.665l19.315-6.794c-2.361,19.728-6.125,61.173-7.11,72.125
						c-0.131,1.458,1.016,2.706,2.479,2.71l71.289,0.232c1.504,0.005,2.767-1.13,2.921-2.626l7.564-73.329l35.147-17.441
						c4.892-1.363,8.387-5.276,9.449-9.9c0.028-0.075,0.063-0.145,0.09-0.22l14.851-45.406L250.232,101.247z"/>
				</g>
				<g>
					<path fill="#FFB380" d="M251.197,92.219c0,0,2.221-22.233-8.141-20.48c0,0-0.02,0.055-0.052,0.148
						c-0.083-0.377-0.245-0.725-0.482-1.008c-0.375-0.447-0.911-0.745-1.52-0.784c-1.218-0.079-2.283,0.903-2.365,2.182
						l-0.931,14.401c-0.065-0.584-0.752-1.753-0.926-2.141c-0.366-0.816-0.803-1.61-1.405-2.313
						c-1.029-1.201-2.762-1.836-4.359-1.119c-0.274,0.124-0.545,0.301-0.63,0.564c-0.077,0.235,0.012,0.487,0.102,0.721
						c0.859,2.244,2.006,4.399,2.81,6.658c0,0-1.591,3.384,0.375,6.867c0.272,0.484,0.47,0.94,0.637,1.379l15.924,3.952
						L251.197,92.219z M237.691,86.893L237.691,86.893c0-0.002,0-0.005,0-0.007L237.691,86.893z"/>
					<g>
						<path fill="none" stroke="#FF8B2E" stroke-linecap="round" stroke-miterlimit="10" d="M237.96,86.229
							c0,0,4.398-0.003,5.081,4.289"/>
						<g>
							<path fill="#FF8B2E" d="M243.347,71.674c0.401,1.768,0.683,3.546,0.793,5.363c0.057,0.906,0.066,1.822-0.024,2.744
								c-0.093,0.919-0.249,1.858-0.688,2.76c-0.121,0.248-0.42,0.352-0.669,0.23c-0.248-0.121-0.352-0.42-0.23-0.668
								c0.002-0.006,0.005-0.011,0.008-0.017l0.005-0.009c0.378-0.701,0.565-1.548,0.681-2.396c0.117-0.854,0.142-1.732,0.12-2.611
								c-0.039-1.757-0.252-3.533-0.577-5.264l-0.002-0.01c-0.03-0.162,0.077-0.317,0.238-0.348
								C243.159,71.417,243.312,71.519,243.347,71.674z"/>
						</g>
						<g>
							<path fill="#FF8B2E" d="M245.688,72.006c0.619,0.761,0.894,1.575,1.135,2.421c0.224,0.844,0.355,1.706,0.406,2.566
								c0.066,0.862,0.047,1.723,0.008,2.582c-0.055,0.857-0.152,1.708-0.27,2.558c-0.038,0.273-0.291,0.464-0.564,0.426
								s-0.464-0.291-0.426-0.564c0.001-0.005,0.001-0.011,0.002-0.017l0.002-0.012c0.145-0.817,0.27-1.636,0.354-2.46
								c0.068-0.823,0.118-1.649,0.084-2.471c-0.017-0.823-0.111-1.641-0.291-2.434c-0.176-0.775-0.464-1.6-0.894-2.17l-0.034-0.044
								c-0.103-0.136-0.075-0.33,0.062-0.433C245.396,71.854,245.583,71.878,245.688,72.006z"/>
						</g>
						<g>
							<path fill="#FF8B2E" d="M248.624,73.632c0.559,1.412,0.975,2.858,1.172,4.375c0.188,1.497,0.182,3.137-0.631,4.623
								c-0.133,0.242-0.437,0.332-0.68,0.199c-0.242-0.133-0.331-0.437-0.198-0.679c0.004-0.008,0.008-0.015,0.013-0.022
								l0.013-0.021c0.689-1.112,0.818-2.596,0.696-4.016c-0.115-1.431-0.458-2.876-0.926-4.242l-0.005-0.015
								c-0.052-0.152,0.029-0.318,0.181-0.37C248.406,73.413,248.567,73.488,248.624,73.632z"/>
						</g>
					</g>
					<polygon fill="none" points="237.691,86.893 237.692,86.886 237.691,86.893 					"/>
				</g>
			</g>
			<g>
				<polygon fill="#F47E2F" points="213.678,134.006 217.919,141.894 209.827,134.672 				"/>
				<polygon fill="#F47E2F" points="191.861,174.503 186.068,170.58 188.964,202.58 				"/>
				<polygon fill="#F47E2F" points="114.717,175.391 119.859,172.559 111.878,202.082 				"/>
			</g>
		</g>
		<g>
			<path fill="#1C3472" d="M195.743,89.283c-1.119-1.757-3.327-2.465-5.589-2.044c2.013-4.008,2.28-8.318,0.282-11.825
				c-3.709-6.51-13.762-7.774-22.454-2.822c-3.774,2.15-6.65,5.123-8.413,8.328c-0.525,0.351-1.025,0.739-1.493,1.169
				c-1.764-1.329-4.64-1.297-7.114,0.279c-3,1.912-4.238,5.337-2.765,7.649c0.045,0.071,0.11,0.124,0.16,0.191
				c-2.064,2.137-2.381,5.664-0.577,8.497c0.989,1.553,2.439,2.609,4.008,3.095c-1.843,1.913-2.438,4.48-1.274,6.351
				c1.45,2.328,5.073,2.69,8.093,0.81c3.021-1.881,4.294-5.292,2.844-7.62c-0.218-0.351-0.501-0.638-0.811-0.895
				c0.631-1.116,1.176-2.365,1.633-3.577c4.78,3.232,12.369,3.16,19.142-0.699c0.563-0.321,1.1-0.666,1.621-1.023
				c0.474,0,0.931,0,1.367,0c0.113,0.368,0.261,0.726,0.475,1.06c1.568,2.462,5.272,2.907,8.273,0.996
				C196.15,95.29,197.312,91.744,195.743,89.283z"/>
			<g>
				<path fill="#FEAD6C" d="M163.988,91.136c0,0-2.992,13.984-8.356,13.014c-0.452-0.082-2.142-2.734-2.503-3.309
					c-2.159,0.584-3.833,2.443-4.039,4.801c-0.264,3.018,1.97,5.678,4.988,5.941l1.301,0.113l-0.524,6.009c0,0,0,0,0,0.001
					l-1.969,22.564c-0.31,3.542,2.312,6.665,5.854,6.974l6.348,0.554c3.542,0.309,6.665-2.312,6.974-5.854l1.072-12.281l1.285,0.112
					c5.68,0.496,10.686-3.707,11.182-9.386l0.063-0.72c0,0,0,0,0,0l0,0l2.106-24.135c-0.884-0.113-1.972-0.387-3.188-0.388
					C177.555,95.139,164.711,95.318,163.988,91.136z"/>
			</g>
			<circle fill="#1C3472" cx="173.537" cy="105.657" r="0.896"/>
			<circle fill="#1C3472" cx="184.276" cy="106.594" r="0.897"/>
			<path fill="none" stroke="#FF8B2E" stroke-linecap="round" stroke-miterlimit="10" d="M178.15,102.524l2.137,7.371
				c0.047,0.162,0.022,0.331-0.072,0.473c-0.341,0.517-1.414,1.6-4.208,0.999"/>
			<g>
				<g>
					<g>
						<g>
							<g>
								<path fill="#1C3472" d="M165.775,100.368c0.589,0.181,1.309,0.03,2.013-0.075c0.707-0.121,1.42-0.225,2.042-0.293
									c0.624-0.069,1.343-0.124,2.059-0.16c0.71-0.051,1.449-0.063,1.977-0.367c0.51-0.285,0.656-0.958-0.065-1.685
									c-0.681-0.71-2.331-1.382-4.396-1.159c-2.061,0.233-3.499,1.247-3.985,2.086C164.899,99.58,165.208,100.201,165.775,100.368
									z"/>
							</g>
						</g>
						<g>
							<g>
								<path fill="#1C3472" d="M185.808,99.205c-0.431,0.213-1.003,0.188-1.559,0.196c-0.559-0.004-1.121,0.006-1.608,0.032
									c-0.489,0.025-1.049,0.074-1.604,0.136c-0.553,0.05-1.124,0.135-1.567-0.032c-0.429-0.156-0.625-0.655-0.162-1.305
									c0.435-0.632,1.62-1.357,3.237-1.446c1.615-0.081,2.85,0.518,3.33,1.103C186.382,98.488,186.223,99.005,185.808,99.205z"/>
							</g>
						</g>
					</g>
				</g>
			</g>
			<polyline fill="none" stroke="#FF8B2E" stroke-linecap="round" stroke-miterlimit="10" points="153.436,103.899 154.552,106.923 
				152.653,107.596 			"/>
			<path fill="none" stroke="#FF8B2E" stroke-width="0.5" stroke-linecap="round" stroke-miterlimit="10" d="M174.464,106.616
				c0,0-0.991-0.387-2.193-0.085"/>
			<path fill="none" stroke="#FF8B2E" stroke-width="0.5" stroke-linecap="round" stroke-miterlimit="10" d="M185.354,107.611
				c0,0-0.991-0.387-2.193-0.085"/>
			<g>
				<path fill="#FF8B2E" d="M168.05,111.079c0,0,2.852,1.797,5.877,2.551s0.075,5.62-4.565,4.724
					C164.723,117.458,165.598,110.294,168.05,111.079z"/>
				<path fill="none" stroke="#FEAD6C" stroke-width="0.5" stroke-linecap="round" stroke-miterlimit="10" d="M168.178,113.928
					c1.01,0.438,1.474,1.613,1.036,2.624"/>
			</g>
			<path opacity="0.64" fill="#FF8B2E" d="M175.167,128.48l-9.553-0.834c-5.331-0.465-9.276-5.164-8.811-10.495l0.461-5.29
				l-1.886-0.165l-0.524,6.009c-0.438,5.024,2.802,9.515,7.486,10.829l9.979,8.002l0.602-6.892l1.497,0.13
				c5.68,0.496,10.686-3.707,11.182-9.386l0.063-0.72C185.197,125,180.498,128.945,175.167,128.48z"/>
		</g>
	</g>
	<g>
		<path fill="none" stroke="#FF8F39" stroke-linecap="round" stroke-miterlimit="10" d="M254.568,43.616c0,0,5.7,12.292,1.4,22.42"
			/>
		<path fill="none" stroke="#FF8F39" stroke-linecap="round" stroke-miterlimit="10" d="M243.971,54.657
			c0,0,6.634,7.834,5.994,12.75"/>
		<path fill="none" stroke="#FF8F39" stroke-linecap="round" stroke-miterlimit="10" d="M270.287,58.631
			c0,0-8.172,6.213-8.611,11.15"/>
	</g>
</g>
</svg>
